<svg xmlns="http://www.w3.org/2000/svg" viewBox="0 0 1080 1080"><title>icon</title><path d="M230.71,730.94,842.77,348.85c-74.19-55.55-175-101.57-305.55-101.57C207.93,247.28,67,540.18,67,540.18S118.1,646.42,230.71,730.94Z" style="fill:#22adc2"/><path d="M540,807.14c-66.51,0-129.81-13.65-188.14-40.58-46.58-21.51-90-51.45-129.15-89-66.47-63.81-97.23-127.11-98.51-129.78L120.47,540l3.73-7.78c1.28-2.67,32-66,98.51-129.78,39.12-37.55,82.57-67.49,129.15-89,58.33-26.93,121.63-40.58,188.14-40.58s129.83,13.65,188.21,40.58c46.61,21.5,90.1,51.45,129.28,89,66.58,63.81,97.45,127.1,98.73,129.76L960,540l-3.76,7.81c-1.28,2.66-32.15,66-98.73,129.76-39.18,37.54-82.67,67.49-129.28,89C669.83,793.49,606.51,807.14,540,807.14ZM160.76,540c10.07,18.22,38.78,65.68,87.83,112.51C331.05,731.22,429.09,771.14,540,771.14c111.36,0,209.8-40.22,292.58-119.56,48.73-46.71,77.07-93.47,87.07-111.56-10.12-18.25-38.91-65.69-88-112.5C749,348.78,650.91,308.86,540,308.86c-111.36,0-209.72,40.22-292.36,119.55C199,475.13,170.72,521.91,160.76,540Z" style="fill:#324454"/><path d="M540,736.93c-108.59,0-196.93-88.34-196.93-196.93S431.41,343.07,540,343.07A197,197,0,0,1,722.58,466.12a18,18,0,1,1-33.37,13.51A160.32,160.32,0,0,0,540,379.07c-88.74,0-160.93,72.19-160.93,160.93S451.26,700.93,540,700.93A160.32,160.32,0,0,0,689.21,600.37a18,18,0,1,1,33.37,13.51A197,197,0,0,1,540,736.93Z" style="fill:#324454"/><path d="M610.21,540l35.62-25a108.71,108.71,0,1,0,0,50Z" style="fill:#324454"/></svg>